<svg xmlns="http://www.w3.org/2000/svg" width="346.266" height="359.713" viewBox="0 0 346.266 359.713">
  <path id="Subtraction_1" data-name="Subtraction 1" d="M164.165,359.713v0a166.4,166.4,0,0,1-64.227-16.593,172.049,172.049,0,0,1-27.9-17.027,176.731,176.731,0,0,1-24.246-21.97,180.352,180.352,0,0,1-19.96-26.255,182.539,182.539,0,0,1-15.04-29.882A185.139,185.139,0,0,1,0,179.974a188.148,188.148,0,0,1,3.518-36.267,184.272,184.272,0,0,1,10.09-33.781A182.363,182.363,0,0,1,29.572,79.356,180,180,0,0,1,50.715,52.719,176.079,176.079,0,0,1,76.339,30.741a171.207,171.207,0,0,1,29.409-16.6,167.359,167.359,0,0,1,134.769,0,171.2,171.2,0,0,1,29.409,16.6,176.076,176.076,0,0,1,25.624,21.978,180,180,0,0,1,21.143,26.637,182.369,182.369,0,0,1,15.965,30.571,184.276,184.276,0,0,1,10.09,33.781,188.149,188.149,0,0,1,3.518,36.267,185.963,185.963,0,0,1-9.642,59.363,181.559,181.559,0,0,1-26.747,51.025,176.616,176.616,0,0,1-40.582,39.288A168.96,168.96,0,0,1,218.147,353.8V220.54h45.016l6.752-54.315H218.147v-34.7c0-9.119,1.483-15.018,4.809-19.127a17.438,17.438,0,0,1,7.886-5.407,38.7,38.7,0,0,1,13.207-1.922h27.666V56.513a363.111,363.111,0,0,0-40.339-2.124c-41.457,0-67.211,27.516-67.211,71.809V166.26H119.046v54.315h45.119V359.713Z" fill="#113f3d"/>
</svg>
