<svg id="twitter_2168336" xmlns="http://www.w3.org/2000/svg" width="354.12" height="354.121" viewBox="0 0 354.12 354.121">
  <g id="Group_8" data-name="Group 8">
    <path id="Path_22" data-name="Path 22" d="M177.06,0C79.43,0,0,79.43,0,177.061S79.43,354.121,177.06,354.121s177.06-79.437,177.06-177.061S274.7,0,177.06,0Zm78.987,136.536c.078,1.755.121,3.523.121,5.292,0,53.854-40.981,115.932-115.96,115.932a115.273,115.273,0,0,1-62.47-18.294,82.29,82.29,0,0,0,60.337-16.874,40.793,40.793,0,0,1-38.071-28.307,40.911,40.911,0,0,0,18.4-.685A40.76,40.76,0,0,1,85.72,153.639c0-.171,0-.349.007-.513a40.586,40.586,0,0,0,18.451,5.092,40.815,40.815,0,0,1-12.609-54.411A115.716,115.716,0,0,0,175.562,146.4a40.781,40.781,0,0,1,69.445-37.179A81.346,81.346,0,0,0,270.9,99.328a40.936,40.936,0,0,1-17.944,22.552,81.021,81.021,0,0,0,23.407-6.412,81.975,81.975,0,0,1-20.312,21.068Z" fill="#113f3d"/>
  </g>
</svg>
