<svg id="instagram_1384015_1_" data-name="instagram_1384015 (1)" xmlns="http://www.w3.org/2000/svg" width="364.842" height="364.843" viewBox="0 0 364.842 364.843">
  <path id="Path_19" data-name="Path 19" d="M276.833,241.917A34.917,34.917,0,1,1,241.917,207,34.916,34.916,0,0,1,276.833,241.917Zm0,0" transform="translate(-59.496 -59.495)" fill="#113f3d"/>
  <path id="Path_20" data-name="Path 20" d="M303.019,159.586a34.687,34.687,0,0,0-19.88-19.88c-3.691-1.433-9.235-3.14-19.448-3.6-11.048-.5-14.36-.612-42.329-.612s-31.284.106-42.329.61c-10.213.467-15.761,2.174-19.448,3.607a34.705,34.705,0,0,0-19.883,19.88c-1.434,3.691-3.14,9.238-3.6,19.451-.5,11.045-.612,14.358-.612,42.329s.108,31.281.612,42.329c.465,10.213,2.171,15.758,3.6,19.449a34.687,34.687,0,0,0,19.88,19.88c3.691,1.436,9.239,3.143,19.451,3.608,11.045.5,14.354.609,42.326.609s31.287-.106,42.329-.609c10.213-.465,15.76-2.171,19.451-3.608a34.685,34.685,0,0,0,19.88-19.88c1.434-3.691,3.14-9.236,3.608-19.449.5-11.048.61-14.36.61-42.329s-.106-31.284-.61-42.329C306.162,168.824,304.456,163.277,303.019,159.586ZM221.362,275.153a53.789,53.789,0,1,1,53.788-53.789A53.789,53.789,0,0,1,221.362,275.153Zm55.915-97.134a12.57,12.57,0,1,1,12.57-12.571A12.571,12.571,0,0,1,277.277,178.018Zm0,0" transform="translate(-38.941 -38.942)" fill="#113f3d"/>
  <path id="Path_21" data-name="Path 21" d="M182.421,0C81.688,0,0,81.688,0,182.421S81.688,364.843,182.421,364.843s182.421-81.688,182.421-182.421S283.154,0,182.421,0ZM286.538,225.608c-.507,11.151-2.28,18.764-4.868,25.428a53.561,53.561,0,0,1-30.635,30.636c-6.661,2.589-14.277,4.359-25.425,4.868-11.17.509-14.739.632-43.186.632s-32.016-.122-43.189-.632c-11.148-.509-18.764-2.28-25.425-4.868a53.56,53.56,0,0,1-30.635-30.636c-2.589-6.661-4.362-14.277-4.868-25.425-.515-11.173-.635-14.742-.635-43.189s.12-32.016.632-43.187c.507-11.151,2.277-18.764,4.866-25.428a53.6,53.6,0,0,1,30.638-30.636c6.664-2.589,14.277-4.359,25.427-4.868,11.17-.509,14.739-.632,43.186-.632s32.016.122,43.186.635c11.151.507,18.764,2.277,25.427,4.863a53.575,53.575,0,0,1,30.635,30.638c2.591,6.664,4.362,14.277,4.871,25.428.509,11.17.629,14.739.629,43.187S287.051,214.437,286.538,225.608Zm0,0" fill="#113f3d"/>
</svg>
